<svg width="385" height="104" viewBox="0 0 385 104" fill="none" xmlns="http://www.w3.org/2000/svg">
<mask id="path-1-inside-1_2_98" fill="white">
<path d="M50.5242 86.0044C50.1063 85.3155 50.3295 84.5742 50.1503 83.9767C49.6651 86.536 49.9555 89.1459 50.1191 91.7418C50.2362 93.6017 50.9238 95.3717 52.2818 96.6971C53.1289 97.524 52.1756 98.0137 52.1486 98.6581C52.1269 99.1751 51.736 99.607 51.0886 99.6176C50.5946 99.6258 50.3584 99.3767 50.3921 98.9176C50.5024 97.4165 49.9062 96.1411 49.2385 94.853C48.5161 93.4592 48.5694 91.8757 48.3585 90.362C48.2832 89.8216 48.2838 89.2707 48.2473 88.6855C47.6208 88.717 47.514 89.1109 47.4035 89.4539C46.288 92.9152 45.413 96.4193 45.6366 100.102C45.6857 100.911 45.3686 101.43 44.5986 101.708C44.1451 101.872 43.7439 101.958 43.3297 101.609C42.8929 101.242 42.7592 100.81 43.0107 100.309C44.1501 98.0374 43.2694 95.4116 44.2781 93.1177C44.3241 93.0132 44.2567 92.8587 44.2339 92.6546C43.5218 92.9319 43.1887 93.5353 42.7532 94.0001C41.1242 95.7386 39.2096 97.1505 37.4398 98.7273C37.092 99.0371 36.6996 99.2175 36.3353 98.8367C35.9845 98.4699 36.005 97.9804 36.2844 97.579C36.4553 97.3334 36.7463 97.1614 37.0049 96.9886C38.7941 95.7923 40.5395 94.546 41.887 92.8312C42.0149 92.6684 42.1748 92.5066 42.2328 92.3176C42.3996 91.7746 43.0069 91.2171 42.5666 90.6747C42.0998 90.0997 41.3944 90.4322 40.8082 90.6335C39.9204 90.9386 39.0092 90.7792 38.1097 90.8438C37.4002 90.8948 36.6783 90.873 36.3766 91.8287C36.1642 92.5016 35.4344 92.304 34.9075 92.2083C34.3644 92.1097 34.25 91.7171 34.3465 91.1708C34.6204 89.6208 34.8547 89.4939 36.407 89.6073C39.1992 89.8113 42.0168 90.0038 44.3822 88.0134C45.2847 87.254 46.1291 86.452 46.5302 85.1739C45.7248 85.0386 45.2558 85.4326 44.8085 85.7747C43.5763 86.7171 42.2001 87.3858 40.7966 88.0157C40.3058 88.236 39.8062 88.3569 39.2738 88.3009C38.1125 88.1787 36.9662 87.8211 35.8129 88.4881C35.399 88.7275 34.8552 88.4452 34.4821 88.0826C34.094 87.7054 33.7473 87.2484 33.9468 86.6986C34.1413 86.1625 34.702 86.3052 35.1419 86.3013C36.2158 86.2918 37.2095 86.7406 38.1151 87.1721C38.9231 87.557 39.6239 87.5867 40.289 87.2408C41.865 86.4211 43.3805 85.4842 44.914 84.5837C45.0867 84.4823 45.2609 84.3396 45.2495 83.9536C44.3511 83.5743 43.3353 83.8306 42.3847 83.7411C40.3769 83.5522 38.3568 83.5895 36.5284 82.517C36.1037 82.2679 35.7118 82.0148 35.3459 81.688C34.931 81.3174 34.7556 80.8853 34.9522 80.3823C35.1893 79.7759 35.6593 80.1805 36.0345 80.2102C36.6312 80.2574 37.2046 80.1676 37.7932 80.0506C40.8172 79.4496 43.6474 78.2399 46.4189 76.9965C48.4871 76.0687 50.5813 75.0196 52.3378 73.4995C53.6378 72.3744 55.3168 72.1896 56.82 71.5695C57.1857 71.4186 57.6607 71.4503 57.8948 70.9563C57.4618 70.4637 56.8922 70.5314 56.3568 70.4956C53.3736 70.2962 50.5788 71.2662 47.72 71.8636C44.3713 72.5633 41.2699 73.9278 38.265 75.4693C35.937 76.6636 33.868 78.3557 32.0093 80.1739C30.936 81.2238 29.984 82.4279 28.8261 83.4241C27.2332 84.7945 25.2757 85.3519 23.3061 85.7283C21.5022 86.0729 20.3427 84.3717 21.1382 82.7157C21.7597 81.4219 22.5732 80.2508 23.5444 79.1812C24.4803 78.1505 24.8123 77.5384 23.6042 76.3731C21.4123 74.2589 21.0735 71.5334 21.5075 68.6421C21.8143 66.5975 22.5815 64.7609 23.8806 63.1502C24.0578 62.9306 24.263 62.7123 24.044 62.4108C23.8577 62.1542 23.573 62.0714 23.2973 62.163C22.5242 62.4199 21.8215 62.3339 21.081 61.9786C20.3993 61.6515 19.8272 61.707 19.6864 62.6965C19.2387 65.8441 17.2278 68.2469 15.6138 70.8039C14.5186 72.5391 14.2531 74.5164 13.4704 76.3276C13.4053 76.4783 13.3811 76.6971 13.4399 76.843C13.8397 77.8342 13.7576 78.7797 13.3699 79.7685C13.2057 80.1874 13.0883 80.5733 12.6416 80.6867C12.1376 80.8147 11.5709 80.9336 11.1318 80.5846C10.692 80.2351 11.0188 79.7917 11.2179 79.4519C11.8041 78.4513 11.3494 77.3496 11.5606 76.3381C12.1171 73.674 12.9104 71.0887 14.5565 68.8428C14.9896 68.2518 15.4922 67.6498 15.5435 66.8809C15.2425 66.635 15.0163 66.7656 14.8119 66.8911C12.5393 68.2869 10.4602 69.9031 8.90095 72.1099C8.62725 72.4972 8.49348 72.8434 8.69424 73.3583C9.1122 74.4304 8.07483 75.9168 6.91729 76.0098C5.70205 76.1073 5.14726 75.2562 5.7625 74.0851C6.83806 72.0378 7.73965 69.8647 9.71461 68.4254C10.2443 68.0394 10.6755 67.5075 11.2851 67.2238C13.5435 66.1729 15.0365 64.1165 17.0943 62.8011C17.3167 62.659 17.5646 62.4069 17.3722 62.0981C17.1584 61.755 16.8011 61.8125 16.5467 62.0202C13.9392 64.149 10.6769 65.0766 7.84033 66.7864C6.9156 67.3438 6.17881 67.9162 5.82871 69.041C5.54744 69.9447 4.70363 70.5331 3.76964 70.8351C3.31613 70.9818 2.8353 70.9235 2.55404 70.4797C2.31491 70.1024 2.29023 69.6659 2.64334 69.3237C3.01571 68.9629 3.08334 68.4571 3.29427 68.026C3.78584 67.0214 4.76647 66.6852 5.62731 66.2267C7.22238 65.377 8.90103 64.6844 10.4948 63.8325C11.7721 63.1498 13.1929 62.7077 14.2752 61.6788C14.4977 61.4674 14.8394 61.3006 14.6996 60.9218C14.579 60.5952 14.2571 60.487 13.9342 60.4542C10.7289 60.1292 7.52983 60.1357 4.34408 60.6697C3.98688 60.7296 3.71422 60.9068 3.56737 61.2842C3.19336 62.2455 2.40778 62.6144 1.46752 62.4126C0.461163 62.1967 0.222799 61.1948 0.0197876 60.3942C-0.126965 59.8154 0.574538 59.7058 1.06776 59.6691C2.97936 59.5269 4.89165 59.3936 6.8043 59.2661C8.26931 59.1685 9.69913 58.6673 11.3793 59.1972C11.1621 58.8276 11.1411 58.7373 11.096 58.7229C8.62569 57.9375 6.51156 56.4456 4.2328 55.2804C3.71399 55.0151 3.04918 54.7563 3.1771 54.1688C3.32277 53.4999 3.61854 52.6385 4.37716 52.4544C5.0689 52.2864 5.57532 52.8052 5.86434 53.4973C6.5603 55.164 8.07974 55.957 9.61267 56.4405C11.4296 57.0136 13.27 57.5386 15.0979 58.0929C15.2182 58.1294 15.3556 58.1094 15.4769 58.1153C15.6564 57.6445 15.2956 57.5063 15.0765 57.3295C12.1687 54.9824 10.1526 51.9248 8.2941 48.7532C7.72137 47.7758 7.23123 46.7861 5.97822 46.6333C5.88091 46.118 6.14547 45.7528 6.28227 45.3752C6.46642 44.8669 6.95018 44.6632 7.45947 44.6484C7.91809 44.6351 8.04851 45.0331 8.23545 45.3825C9.89767 48.4891 11.5927 51.5997 14.0129 54.1807C15.6161 55.8904 17.2852 57.609 19.7763 58.7372C19.0375 57.4485 18.3116 56.4965 17.4423 55.6875C16.8541 55.1401 16.4517 54.5342 16.1985 53.7935C15.7923 52.6047 15.4329 51.3952 14.9483 50.2388C13.9737 47.9126 14.7982 45.8108 15.6464 43.6989C15.7233 43.5072 15.8695 43.3446 15.9711 43.1616C17.495 40.4168 18.9941 40.2723 21.0633 42.6727C21.8245 43.5556 22.541 43.6133 23.4309 42.8631C24.7397 41.7598 25.5875 42.1075 25.9958 43.8046C26.5486 46.1025 27.1929 48.3773 28.0144 50.5993C28.6007 52.1854 29.9214 53.0148 31.3112 53.6403C32.3176 54.0934 33.2334 54.6405 34.0524 55.3288C35.1191 56.2253 36.4232 57.0398 37.619 57.1913C40.7941 57.5936 43.4324 59.4642 46.5262 60.0175C47.8419 60.2528 49.1216 60.8594 50.2471 61.641C50.9623 62.1376 51.8857 62.2204 52.5092 62.8974C52.706 63.1111 53.0934 63.0921 53.4339 62.8566C53.5139 62.1455 53.1925 61.5329 52.6082 61.2178C50.7551 60.2188 49.7366 58.4369 48.4538 56.9112C48.0086 56.3817 47.6232 55.8036 47.1205 55.3121C43.7883 52.0544 40.0385 49.3661 36.1787 46.7591C29.648 42.3481 22.4741 39.5325 15.0116 37.2502C12.8516 36.5896 10.7418 35.7484 8.56553 35.108C7.61555 34.8285 6.77486 34.2685 7.04941 33.0037C7.07065 32.9058 7.04635 32.7939 7.02621 32.6918C6.75139 31.2996 6.92462 30.885 8.31194 30.5043C11.3263 29.6772 14.2828 29.4666 17.4251 30.3706C23.1247 32.0103 28.1417 34.826 32.8462 38.3175C33.6561 38.9186 34.3841 39.6309 35.4208 39.8544C35.8803 39.9534 35.9806 40.4499 36.2745 40.7378C39.2183 43.6209 42.2488 46.4237 45.0517 49.4384C46.1382 50.607 47.2759 51.7936 48.1579 53.1649C49.2652 54.8863 50.5479 56.4624 52.1532 57.9737C52.4519 57.1304 52.1937 56.5243 51.9703 55.9177C51.3872 54.3345 50.4 52.9653 49.5966 51.5003C49.1431 50.6734 48.7113 49.8904 48.5958 48.9205C48.524 48.3182 48.1046 47.7864 47.6908 47.3042C47.0257 46.5292 46.5019 45.6849 46.3241 44.6452C46.1671 43.7275 45.521 43.1272 44.8372 42.5626C44.2407 42.0701 43.6784 41.5601 43.6851 40.6743C43.6888 40.1827 43.3485 39.8859 42.8759 39.8796C39.4452 39.8342 37.0551 37.7582 34.7545 35.6156C32.9912 33.9734 31.269 32.2893 29.3304 30.8559C28.1682 29.9967 26.7588 29.6299 25.4149 29.1697C24.4753 28.848 23.6954 28.4392 23.2926 27.4762C23.0691 26.9419 22.5981 26.611 22.1541 26.2707C21.7502 25.961 21.4587 25.6047 21.4526 25.0537C21.4238 22.4214 22.2457 22.3918 24.6445 23.2067C28.1656 24.4029 31.4062 26.2988 33.9487 29.2157C35.6455 31.1623 37.7325 32.7182 39.8176 34.2446C40.0413 34.4083 40.2879 34.5568 40.5458 34.654C40.9196 34.795 41.3459 35.1308 41.7007 34.7262C41.9912 34.3951 41.7015 34.0103 41.5991 33.6449C40.9682 31.394 40.1773 29.2037 39.284 27.0427C38.3995 24.9029 37.2571 22.9256 35.7223 21.2073C34.3325 19.6513 34.1879 17.6594 33.6241 15.8109C33.4949 15.3872 33.8358 15.0244 33.969 14.7098C33.7725 14.2393 33.3428 14.1453 33.1009 13.8497C32.8641 13.5605 32.7195 13.2369 32.9266 12.8904C33.1443 12.5259 33.4878 12.5854 33.8547 12.6656C35.1726 12.9537 36.1207 13.8455 37.1438 14.6221C37.6907 15.0372 38.256 15.4281 38.7892 15.8128C39.1602 15.5159 38.9609 15.3124 38.8395 15.1147C37.9218 13.6211 36.8254 12.2668 35.6196 10.9994C35.2749 10.637 34.8435 10.4346 34.3648 10.2808C33.6084 10.0376 33.0034 9.60679 32.8528 8.66856C34.6933 7.68496 35.8052 9.82148 37.5249 9.68091C37.1278 8.29901 36.6809 6.97442 35.991 5.73472C35.766 5.33047 35.2862 4.85071 35.9315 4.48844C36.4916 4.17393 37.0535 4.34908 37.5104 4.87708C38.4736 5.99026 38.6854 7.38009 38.976 8.73617C39.056 9.10994 39.0404 9.53046 39.2558 9.83965C40.456 11.5625 40.155 13.5596 40.3463 15.5357C40.8621 15.5053 40.8436 15.1637 40.8747 14.7675C40.9822 13.3942 40.7419 12.0543 40.4896 10.7251C40.0862 8.59996 40.1636 6.42901 39.7959 4.29602C39.6725 3.57998 40 2.76695 40.0597 1.97849C40.1281 1.0751 40.9402 1.55643 41.4067 1.7263C41.8319 1.57279 41.8371 1.21489 41.9818 0.947996C42.2131 0.521377 42.2533 -0.202814 43.0064 0.0535778C43.6957 0.288282 44.4661 0.584133 44.3517 1.53682C44.266 2.25112 44.2212 2.97825 43.7536 3.61911C43.1228 4.4835 43.1448 5.52662 43.1835 6.54402C43.2418 8.07609 43.5397 9.59539 43.4064 11.1396C43.3764 11.4876 43.4846 11.8357 43.9204 11.991C44.487 11.6723 44.5539 11.1391 44.496 10.5616C44.3041 8.65102 44.2114 6.74522 44.3051 4.81738C44.3703 3.4759 45.0386 2.2769 45.0058 0.926644C44.996 0.523418 45.3967 0.254369 45.8412 0.328778C46.3454 0.413196 46.6853 0.781172 46.6818 1.26681C46.6731 2.44973 46.8666 3.64322 46.5986 4.81488C46.4791 5.33718 46.473 5.85276 46.5102 6.37521C46.5426 6.83162 46.7695 7.05087 47.2611 7.03195C48.887 6.96934 49.5181 7.88182 48.8597 9.3954C48.4154 10.4168 47.9879 11.4746 47.355 12.3771C46.6277 13.4141 46.5806 14.4973 47.1721 15.4126C48.8798 18.055 48.3656 20.802 47.8639 23.5937C47.6251 24.9231 47.832 26.238 48.2711 27.5002C48.678 28.6697 48.7406 29.9856 49.6789 30.9407C49.797 31.061 49.8549 31.2469 50.1818 31.2427C50.517 30.5229 50.5401 29.7102 50.1708 29.0244C49.8561 28.4398 49.6862 27.7672 49.3099 27.258C48.6297 26.3375 48.8272 25.4304 49.0571 24.4798C49.7238 21.7235 51.0098 19.5573 53.9674 18.6589C54.947 18.3613 55.7807 17.5329 56.6332 16.8841C57.1798 16.4681 57.7139 16.1226 58.3027 16.6593C58.8883 17.193 58.584 17.7485 58.2348 18.3361C56.6632 20.9805 54.624 23.3991 54.2042 26.6109C54.0507 27.785 53.8575 28.952 53.853 30.1415C53.8468 31.7449 53.8974 33.3457 53.4718 34.9275C53.2703 35.6763 53.0808 36.4063 52.6448 37.0504C52.0895 37.8706 52.118 38.6805 52.4052 39.6302C53.1365 42.0483 54.1376 44.4241 54.0042 47.0287C53.9599 47.8919 53.9599 48.7698 53.6187 49.5937C53.5684 49.7151 53.5064 49.8961 53.5589 49.9855C54.0217 50.7739 53.9635 51.5609 53.6478 52.3803C53.5676 52.5885 53.5605 52.8694 53.9368 53.1316C54.6373 51.9777 54.893 50.7044 54.9489 49.4265C55.0773 46.4903 55.4764 43.5853 56.3762 40.8092C56.9935 38.9047 57.7093 37.014 58.5291 35.1593C59.8057 32.2709 61.1826 29.4303 62.6405 26.6437C63.5562 24.8933 64.4372 22.9975 66.1232 21.7643C67.1416 21.0194 68.0992 20.1403 69.5353 20.2233C70.9527 20.3052 72.3534 21.2484 72.7112 22.6501C73.1054 24.1938 73.2861 25.7315 71.9695 27.0281C71.6923 27.3011 71.5385 27.7566 71.4511 28.155C71.1544 29.5084 70.4155 30.5365 69.4135 31.4781C67.1953 33.5626 65.3601 35.9671 63.7744 38.5696C62.855 40.0787 61.8258 41.5125 61.0161 43.0985C59.7985 45.4832 59.3664 48.1419 58.2946 50.5572C57.1812 53.0664 57.2488 55.7141 56.9988 58.3356C56.9642 58.698 57.0728 59.0237 57.1863 59.3552C57.2651 59.5853 57.4301 59.8535 57.3731 60.0519C56.8127 62.0054 57.9627 63.4834 58.6719 65.1078C59.147 66.1959 59.5634 67.283 60.442 68.128C60.7394 68.414 60.9441 68.8029 61.4203 68.8461C61.8709 68.6005 61.7205 68.1716 61.7166 67.8174C61.6767 64.1297 62.608 60.7154 64.5254 57.5637C65.4862 55.9844 66.5555 54.4383 67.3428 52.7934C68.7816 49.7875 69.8654 46.6149 67.9746 43.3298C67.4999 42.5051 66.9818 41.7212 65.8695 41.6498C65.4462 41.6226 65.0003 41.1655 65.2986 40.8851C66.2519 39.9891 66.0205 38.662 66.6712 37.6586C67.4171 36.5085 67.845 36.2553 69.113 36.7104C69.8899 36.9893 71.2495 36.5911 71.664 35.8809C72.0573 35.2069 72.5494 35.0555 73.2386 35.338C74.3219 35.7819 75.3003 36.2869 75.7382 37.5289C75.9506 38.1311 76.3808 38.7311 76.87 39.1461C78.0969 40.1868 78.5229 41.6942 79.2558 43.0128C79.5589 43.5582 79.4996 44.2994 79.6397 44.944C79.7193 45.31 79.7889 45.7519 80.2687 45.8018C80.6884 45.8454 80.8891 45.4888 81.0163 45.1715C81.7659 43.3017 82.8418 41.5479 83.044 39.4809C83.0953 38.9563 83.1737 38.4271 82.9954 37.9229C82.6626 36.9814 83.0475 36.1331 83.3007 35.2708C83.4221 34.8575 83.7949 34.6777 84.1893 34.6414C84.577 34.6057 84.6717 34.9652 84.8284 35.2347C85.6513 36.6497 85.1803 38.1399 84.8853 39.5197C84.3829 41.8695 83.5577 44.1377 82.225 46.1881C81.9213 46.6553 81.5148 47.1594 81.6957 47.8381C82.2465 47.947 82.5357 47.55 82.8376 47.2482C84.3522 45.7338 85.5092 43.9676 86.5308 42.0889C87.4608 40.3789 88.3222 38.6526 89.0273 36.8311C89.4442 35.7543 89.6547 34.6936 89.5993 33.5761C89.5693 32.971 89.6883 32.5396 90.2867 32.3383C90.945 32.1167 91.4481 32.3481 91.8126 32.9137C92.2363 33.5713 92.301 34.3309 92.1521 35.0421C91.3695 38.78 90.3793 42.394 87.435 45.1776C86.0514 46.4856 84.9771 48.1235 83.5434 49.4125C83.0505 49.8556 82.573 50.2475 81.8177 50.2649C81.1037 50.2813 80.7379 50.962 80.3162 51.4622C80.174 51.6309 80.1899 51.864 80.3115 52.0547C80.4896 52.3338 80.7183 52.1927 80.9585 52.1332C82.8034 51.6764 84.3027 50.5285 85.7989 49.4866C88.0795 47.8985 90.2726 46.153 92.0361 43.9562C92.3405 43.5772 92.5992 43.158 92.8495 42.7396C93.2363 42.0929 93.8162 42.1922 94.2973 42.4669C94.794 42.7506 94.7671 43.2262 94.4622 43.7367C93.3168 45.655 92.1623 47.5673 90.2342 48.8183C89.0429 49.5912 87.8341 50.3505 86.5723 50.997C85.6047 51.4927 84.7639 52.1156 83.692 52.922C85.0143 53.3065 86.1263 53.2266 87.1988 53.3759C88.0268 53.4911 88.8834 53.4387 89.6974 53.6062C90.6156 53.7951 91.5616 54.0777 91.6111 55.305C91.6206 55.5401 91.7788 55.6748 91.9559 55.7974C92.7258 56.3304 95.0759 56.2091 95.8297 55.5961C95.9651 55.4861 96.0899 55.3551 96.241 55.2738C96.8404 54.9515 97.4448 54.3567 98.1535 54.8465C98.9229 55.3782 98.2986 56.2711 98.5001 56.988C98.5897 57.3069 98.0286 57.4546 97.6813 57.4438C96.1971 57.3977 94.6965 57.5834 93.2375 57.1283C92.9812 57.0483 92.6192 56.9747 92.4214 57.0925C90.8833 58.0082 89.7031 56.9144 88.4109 56.4364C87.7001 56.1734 87.1176 55.5058 86.0468 55.7113C86.6153 56.4023 87.0325 57.0446 87.5771 57.5493C90.6907 60.4353 90.7976 64.2485 89.2812 67.8271C89.1142 68.2213 88.8662 68.5573 88.506 68.7943C88.127 69.0438 87.7253 69.3555 87.2553 69.1319C86.7055 68.8704 86.9472 68.3724 86.9883 67.9286C87.2271 65.348 86.7486 62.8457 85.9964 60.4063C85.3342 58.2588 83.3999 57.5508 81.5084 57.3C78.3732 56.8844 75.1778 56.6249 72.1336 57.9637C71.9769 58.0327 71.7839 58.113 71.6305 58.0806C69.9338 57.722 69.1376 58.8287 68.2661 59.9923C66.3355 62.5701 64.9575 65.3872 64.1839 68.5123C63.9645 69.3984 64.1801 70.1342 64.6629 70.8829C66.6327 73.9374 68.9764 76.6957 71.2906 79.4845C72.2833 80.6809 73.089 82.0322 74.1854 83.0338C74.6226 83.0215 74.7332 82.7691 74.825 82.5612C75.804 80.3448 78.2585 78.6975 79.9019 77.8784C80.8172 77.4573 81.3642 76.7952 81.9259 75.9244C82.6247 75.258 82.9604 75.3196 83.7766 75.6773C84.5995 76.0379 84.4177 76.4523 84.1955 77.0399C83.3187 79.3578 83.3477 81.7563 83.0436 84.1674C82.7174 86.7531 81.2732 89.047 78.5406 90.0371C77.9779 90.2409 77.5962 90.6505 77.9122 91.1901C78.7392 92.6018 79.0702 94.0779 79.5878 95.5924C80.2166 97.4325 80.9215 99.0541 81.0539 101.043C81.1544 102.554 81.1637 103.313 79.627 103.528C79.4304 103.556 79.5038 103.3 79.0642 103.454C79.3181 101.339 78.4168 99.8782 78.4358 97.8983C78.4545 95.9508 77.4031 94.2133 76.5799 92.5185C76.3309 92.0058 75.9171 91.9319 75.4645 92.3088C74.2051 93.3576 72.8243 93.3228 71.3275 92.8991C68.7985 92.1832 66.2062 91.426 63.5655 91.9238C63.0676 92.0177 62.8483 91.9979 62.4136 91.7142C61.8619 91.3541 61.8917 91.1972 62.3088 90.7708C64.3109 88.7246 66.3746 87.4653 69.3251 87.1022C70.2547 86.9879 71.4354 86.8133 72.362 86.683C73.3979 86.5374 73.3591 85.7627 72.7265 84.927C70.4361 81.9009 68.3414 78.7178 65.7378 75.941C65.2522 75.4231 64.5765 75.0131 63.9107 74.7531C63.0453 74.4152 62.2851 73.9485 61.5983 73.3586C61.1654 72.9867 60.7629 73.044 60.3548 73.2909C57.9894 74.722 56.2183 76.7966 54.4707 78.8745C53.815 79.6542 53.5726 80.7037 53.4753 81.7097C53.3177 83.3386 53.2932 84.98 53.1873 86.6145C53.156 87.0974 53.489 87.8731 52.8108 87.9638C52.1406 88.0534 51.4003 87.7371 51.0203 87.0164C50.858 86.7086 50.7216 86.3871 50.5242 86.0044ZM51.287 64.6334C51.1264 64.5665 50.9699 64.4863 50.8045 64.4349C48.3982 63.6864 45.9037 63.3706 43.4172 63.1381C41.6747 62.9753 39.932 62.7871 38.1368 62.8926C36.6168 62.9819 35.0521 63.3779 33.478 62.9604C32.6224 62.7334 31.6578 62.6545 30.7878 62.7937C27.8239 63.2679 24.5947 66.8526 24.332 69.8579C24.1931 71.4463 23.9835 73.0667 25.334 74.3388C25.6866 74.6708 26.0235 75.0351 26.2955 75.4338C26.7733 76.1341 27.2215 76.0111 27.7353 75.4928C28.4957 74.7256 29.3192 74.0587 30.255 73.4839C33.0166 71.7878 36.152 70.9789 39.0662 69.6483C40.8268 68.8445 42.7126 68.0981 44.6436 68.0518C46.6395 68.0038 48.5914 67.743 50.5612 67.5432C51.0718 67.4914 51.5586 67.7538 52.0504 67.9542C53.3446 68.4815 54.7271 68.6693 56.1179 68.6822C56.6022 68.6867 57.002 68.3741 56.5207 67.8763C55.5751 66.8983 54.8813 65.603 53.2317 65.5067C52.6173 65.4709 52.0288 64.9889 51.287 64.6334Z"/>
</mask>
<path d="M50.5242 86.0044C50.1063 85.3155 50.3295 84.5742 50.1503 83.9767C49.6651 86.536 49.9555 89.1459 50.1191 91.7418C50.2362 93.6017 50.9238 95.3717 52.2818 96.6971C53.1289 97.524 52.1756 98.0137 52.1486 98.6581C52.1269 99.1751 51.736 99.607 51.0886 99.6176C50.5946 99.6258 50.3584 99.3767 50.3921 98.9176C50.5024 97.4165 49.9062 96.1411 49.2385 94.853C48.5161 93.4592 48.5694 91.8757 48.3585 90.362C48.2832 89.8216 48.2838 89.2707 48.2473 88.6855C47.6208 88.717 47.514 89.1109 47.4035 89.4539C46.288 92.9152 45.413 96.4193 45.6366 100.102C45.6857 100.911 45.3686 101.43 44.5986 101.708C44.1451 101.872 43.7439 101.958 43.3297 101.609C42.8929 101.242 42.7592 100.81 43.0107 100.309C44.1501 98.0374 43.2694 95.4116 44.2781 93.1177C44.3241 93.0132 44.2567 92.8587 44.2339 92.6546C43.5218 92.9319 43.1887 93.5353 42.7532 94.0001C41.1242 95.7386 39.2096 97.1505 37.4398 98.7273C37.092 99.0371 36.6996 99.2175 36.3353 98.8367C35.9845 98.4699 36.005 97.9804 36.2844 97.579C36.4553 97.3334 36.7463 97.1614 37.0049 96.9886C38.7941 95.7923 40.5395 94.546 41.887 92.8312C42.0149 92.6684 42.1748 92.5066 42.2328 92.3176C42.3996 91.7746 43.0069 91.2171 42.5666 90.6747C42.0998 90.0997 41.3944 90.4322 40.8082 90.6335C39.9204 90.9386 39.0092 90.7792 38.1097 90.8438C37.4002 90.8948 36.6783 90.873 36.3766 91.8287C36.1642 92.5016 35.4344 92.304 34.9075 92.2083C34.3644 92.1097 34.25 91.7171 34.3465 91.1708C34.6204 89.6208 34.8547 89.4939 36.407 89.6073C39.1992 89.8113 42.0168 90.0038 44.3822 88.0134C45.2847 87.254 46.1291 86.452 46.5302 85.1739C45.7248 85.0386 45.2558 85.4326 44.8085 85.7747C43.5763 86.7171 42.2001 87.3858 40.7966 88.0157C40.3058 88.236 39.8062 88.3569 39.2738 88.3009C38.1125 88.1787 36.9662 87.8211 35.8129 88.4881C35.399 88.7275 34.8552 88.4452 34.4821 88.0826C34.094 87.7054 33.7473 87.2484 33.9468 86.6986C34.1413 86.1625 34.702 86.3052 35.1419 86.3013C36.2158 86.2918 37.2095 86.7406 38.1151 87.1721C38.9231 87.557 39.6239 87.5867 40.289 87.2408C41.865 86.4211 43.3805 85.4842 44.914 84.5837C45.0867 84.4823 45.2609 84.3396 45.2495 83.9536C44.3511 83.5743 43.3353 83.8306 42.3847 83.7411C40.3769 83.5522 38.3568 83.5895 36.5284 82.517C36.1037 82.2679 35.7118 82.0148 35.3459 81.688C34.931 81.3174 34.7556 80.8853 34.9522 80.3823C35.1893 79.7759 35.6593 80.1805 36.0345 80.2102C36.6312 80.2574 37.2046 80.1676 37.7932 80.0506C40.8172 79.4496 43.6474 78.2399 46.4189 76.9965C48.4871 76.0687 50.5813 75.0196 52.3378 73.4995C53.6378 72.3744 55.3168 72.1896 56.82 71.5695C57.1857 71.4186 57.6607 71.4503 57.8948 70.9563C57.4618 70.4637 56.8922 70.5314 56.3568 70.4956C53.3736 70.2962 50.5788 71.2662 47.72 71.8636C44.3713 72.5633 41.2699 73.9278 38.265 75.4693C35.937 76.6636 33.868 78.3557 32.0093 80.1739C30.936 81.2238 29.984 82.4279 28.8261 83.4241C27.2332 84.7945 25.2757 85.3519 23.3061 85.7283C21.5022 86.0729 20.3427 84.3717 21.1382 82.7157C21.7597 81.4219 22.5732 80.2508 23.5444 79.1812C24.4803 78.1505 24.8123 77.5384 23.6042 76.3731C21.4123 74.2589 21.0735 71.5334 21.5075 68.6421C21.8143 66.5975 22.5815 64.7609 23.8806 63.1502C24.0578 62.9306 24.263 62.7123 24.044 62.4108C23.8577 62.1542 23.573 62.0714 23.2973 62.163C22.5242 62.4199 21.8215 62.3339 21.081 61.9786C20.3993 61.6515 19.8272 61.707 19.6864 62.6965C19.2387 65.8441 17.2278 68.2469 15.6138 70.8039C14.5186 72.5391 14.2531 74.5164 13.4704 76.3276C13.4053 76.4783 13.3811 76.6971 13.4399 76.843C13.8397 77.8342 13.7576 78.7797 13.3699 79.7685C13.2057 80.1874 13.0883 80.5733 12.6416 80.6867C12.1376 80.8147 11.5709 80.9336 11.1318 80.5846C10.692 80.2351 11.0188 79.7917 11.2179 79.4519C11.8041 78.4513 11.3494 77.3496 11.5606 76.3381C12.1171 73.674 12.9104 71.0887 14.5565 68.8428C14.9896 68.2518 15.4922 67.6498 15.5435 66.8809C15.2425 66.635 15.0163 66.7656 14.8119 66.8911C12.5393 68.2869 10.4602 69.9031 8.90095 72.1099C8.62725 72.4972 8.49348 72.8434 8.69424 73.3583C9.1122 74.4304 8.07483 75.9168 6.91729 76.0098C5.70205 76.1073 5.14726 75.2562 5.7625 74.0851C6.83806 72.0378 7.73965 69.8647 9.71461 68.4254C10.2443 68.0394 10.6755 67.5075 11.2851 67.2238C13.5435 66.1729 15.0365 64.1165 17.0943 62.8011C17.3167 62.659 17.5646 62.4069 17.3722 62.0981C17.1584 61.755 16.8011 61.8125 16.5467 62.0202C13.9392 64.149 10.6769 65.0766 7.84033 66.7864C6.9156 67.3438 6.17881 67.9162 5.82871 69.041C5.54744 69.9447 4.70363 70.5331 3.76964 70.8351C3.31613 70.9818 2.8353 70.9235 2.55404 70.4797C2.31491 70.1024 2.29023 69.6659 2.64334 69.3237C3.01571 68.9629 3.08334 68.4571 3.29427 68.026C3.78584 67.0214 4.76647 66.6852 5.62731 66.2267C7.22238 65.377 8.90103 64.6844 10.4948 63.8325C11.7721 63.1498 13.1929 62.7077 14.2752 61.6788C14.4977 61.4674 14.8394 61.3006 14.6996 60.9218C14.579 60.5952 14.2571 60.487 13.9342 60.4542C10.7289 60.1292 7.52983 60.1357 4.34408 60.6697C3.98688 60.7296 3.71422 60.9068 3.56737 61.2842C3.19336 62.2455 2.40778 62.6144 1.46752 62.4126C0.461163 62.1967 0.222799 61.1948 0.0197876 60.3942C-0.126965 59.8154 0.574538 59.7058 1.06776 59.6691C2.97936 59.5269 4.89165 59.3936 6.8043 59.2661C8.26931 59.1685 9.69913 58.6673 11.3793 59.1972C11.1621 58.8276 11.1411 58.7373 11.096 58.7229C8.62569 57.9375 6.51156 56.4456 4.2328 55.2804C3.71399 55.0151 3.04918 54.7563 3.1771 54.1688C3.32277 53.4999 3.61854 52.6385 4.37716 52.4544C5.0689 52.2864 5.57532 52.8052 5.86434 53.4973C6.5603 55.164 8.07974 55.957 9.61267 56.4405C11.4296 57.0136 13.27 57.5386 15.0979 58.0929C15.2182 58.1294 15.3556 58.1094 15.4769 58.1153C15.6564 57.6445 15.2956 57.5063 15.0765 57.3295C12.1687 54.9824 10.1526 51.9248 8.2941 48.7532C7.72137 47.7758 7.23123 46.7861 5.97822 46.6333C5.88091 46.118 6.14547 45.7528 6.28227 45.3752C6.46642 44.8669 6.95018 44.6632 7.45947 44.6484C7.91809 44.6351 8.04851 45.0331 8.23545 45.3825C9.89767 48.4891 11.5927 51.5997 14.0129 54.1807C15.6161 55.8904 17.2852 57.609 19.7763 58.7372C19.0375 57.4485 18.3116 56.4965 17.4423 55.6875C16.8541 55.1401 16.4517 54.5342 16.1985 53.7935C15.7923 52.6047 15.4329 51.3952 14.9483 50.2388C13.9737 47.9126 14.7982 45.8108 15.6464 43.6989C15.7233 43.5072 15.8695 43.3446 15.9711 43.1616C17.495 40.4168 18.9941 40.2723 21.0633 42.6727C21.8245 43.5556 22.541 43.6133 23.4309 42.8631C24.7397 41.7598 25.5875 42.1075 25.9958 43.8046C26.5486 46.1025 27.1929 48.3773 28.0144 50.5993C28.6007 52.1854 29.9214 53.0148 31.3112 53.6403C32.3176 54.0934 33.2334 54.6405 34.0524 55.3288C35.1191 56.2253 36.4232 57.0398 37.619 57.1913C40.7941 57.5936 43.4324 59.4642 46.5262 60.0175C47.8419 60.2528 49.1216 60.8594 50.2471 61.641C50.9623 62.1376 51.8857 62.2204 52.5092 62.8974C52.706 63.1111 53.0934 63.0921 53.4339 62.8566C53.5139 62.1455 53.1925 61.5329 52.6082 61.2178C50.7551 60.2188 49.7366 58.4369 48.4538 56.9112C48.0086 56.3817 47.6232 55.8036 47.1205 55.3121C43.7883 52.0544 40.0385 49.3661 36.1787 46.7591C29.648 42.3481 22.4741 39.5325 15.0116 37.2502C12.8516 36.5896 10.7418 35.7484 8.56553 35.108C7.61555 34.8285 6.77486 34.2685 7.04941 33.0037C7.07065 32.9058 7.04635 32.7939 7.02621 32.6918C6.75139 31.2996 6.92462 30.885 8.31194 30.5043C11.3263 29.6772 14.2828 29.4666 17.4251 30.3706C23.1247 32.0103 28.1417 34.826 32.8462 38.3175C33.6561 38.9186 34.3841 39.6309 35.4208 39.8544C35.8803 39.9534 35.9806 40.4499 36.2745 40.7378C39.2183 43.6209 42.2488 46.4237 45.0517 49.4384C46.1382 50.607 47.2759 51.7936 48.1579 53.1649C49.2652 54.8863 50.5479 56.4624 52.1532 57.9737C52.4519 57.1304 52.1937 56.5243 51.9703 55.9177C51.3872 54.3345 50.4 52.9653 49.5966 51.5003C49.1431 50.6734 48.7113 49.8904 48.5958 48.9205C48.524 48.3182 48.1046 47.7864 47.6908 47.3042C47.0257 46.5292 46.5019 45.6849 46.3241 44.6452C46.1671 43.7275 45.521 43.1272 44.8372 42.5626C44.2407 42.0701 43.6784 41.5601 43.6851 40.6743C43.6888 40.1827 43.3485 39.8859 42.8759 39.8796C39.4452 39.8342 37.0551 37.7582 34.7545 35.6156C32.9912 33.9734 31.269 32.2893 29.3304 30.8559C28.1682 29.9967 26.7588 29.6299 25.4149 29.1697C24.4753 28.848 23.6954 28.4392 23.2926 27.4762C23.0691 26.9419 22.5981 26.611 22.1541 26.2707C21.7502 25.961 21.4587 25.6047 21.4526 25.0537C21.4238 22.4214 22.2457 22.3918 24.6445 23.2067C28.1656 24.4029 31.4062 26.2988 33.9487 29.2157C35.6455 31.1623 37.7325 32.7182 39.8176 34.2446C40.0413 34.4083 40.2879 34.5568 40.5458 34.654C40.9196 34.795 41.3459 35.1308 41.7007 34.7262C41.9912 34.3951 41.7015 34.0103 41.5991 33.6449C40.9682 31.394 40.1773 29.2037 39.284 27.0427C38.3995 24.9029 37.2571 22.9256 35.7223 21.2073C34.3325 19.6513 34.1879 17.6594 33.6241 15.8109C33.4949 15.3872 33.8358 15.0244 33.969 14.7098C33.7725 14.2393 33.3428 14.1453 33.1009 13.8497C32.8641 13.5605 32.7195 13.2369 32.9266 12.8904C33.1443 12.5259 33.4878 12.5854 33.8547 12.6656C35.1726 12.9537 36.1207 13.8455 37.1438 14.6221C37.6907 15.0372 38.256 15.4281 38.7892 15.8128C39.1602 15.5159 38.9609 15.3124 38.8395 15.1147C37.9218 13.6211 36.8254 12.2668 35.6196 10.9994C35.2749 10.637 34.8435 10.4346 34.3648 10.2808C33.6084 10.0376 33.0034 9.60679 32.8528 8.66856C34.6933 7.68496 35.8052 9.82148 37.5249 9.68091C37.1278 8.29901 36.6809 6.97442 35.991 5.73472C35.766 5.33047 35.2862 4.85071 35.9315 4.48844C36.4916 4.17393 37.0535 4.34908 37.5104 4.87708C38.4736 5.99026 38.6854 7.38009 38.976 8.73617C39.056 9.10994 39.0404 9.53046 39.2558 9.83965C40.456 11.5625 40.155 13.5596 40.3463 15.5357C40.8621 15.5053 40.8436 15.1637 40.8747 14.7675C40.9822 13.3942 40.7419 12.0543 40.4896 10.7251C40.0862 8.59996 40.1636 6.42901 39.7959 4.29602C39.6725 3.57998 40 2.76695 40.0597 1.97849C40.1281 1.0751 40.9402 1.55643 41.4067 1.7263C41.8319 1.57279 41.8371 1.21489 41.9818 0.947996C42.2131 0.521377 42.2533 -0.202814 43.0064 0.0535778C43.6957 0.288282 44.4661 0.584133 44.3517 1.53682C44.266 2.25112 44.2212 2.97825 43.7536 3.61911C43.1228 4.4835 43.1448 5.52662 43.1835 6.54402C43.2418 8.07609 43.5397 9.59539 43.4064 11.1396C43.3764 11.4876 43.4846 11.8357 43.9204 11.991C44.487 11.6723 44.5539 11.1391 44.496 10.5616C44.3041 8.65102 44.2114 6.74522 44.3051 4.81738C44.3703 3.4759 45.0386 2.2769 45.0058 0.926644C44.996 0.523418 45.3967 0.254369 45.8412 0.328778C46.3454 0.413196 46.6853 0.781172 46.6818 1.26681C46.6731 2.44973 46.8666 3.64322 46.5986 4.81488C46.4791 5.33718 46.473 5.85276 46.5102 6.37521C46.5426 6.83162 46.7695 7.05087 47.2611 7.03195C48.887 6.96934 49.5181 7.88182 48.8597 9.3954C48.4154 10.4168 47.9879 11.4746 47.355 12.3771C46.6277 13.4141 46.5806 14.4973 47.1721 15.4126C48.8798 18.055 48.3656 20.802 47.8639 23.5937C47.6251 24.9231 47.832 26.238 48.2711 27.5002C48.678 28.6697 48.7406 29.9856 49.6789 30.9407C49.797 31.061 49.8549 31.2469 50.1818 31.2427C50.517 30.5229 50.5401 29.7102 50.1708 29.0244C49.8561 28.4398 49.6862 27.7672 49.3099 27.258C48.6297 26.3375 48.8272 25.4304 49.0571 24.4798C49.7238 21.7235 51.0098 19.5573 53.9674 18.6589C54.947 18.3613 55.7807 17.5329 56.6332 16.8841C57.1798 16.4681 57.7139 16.1226 58.3027 16.6593C58.8883 17.193 58.584 17.7485 58.2348 18.3361C56.6632 20.9805 54.624 23.3991 54.2042 26.6109C54.0507 27.785 53.8575 28.952 53.853 30.1415C53.8468 31.7449 53.8974 33.3457 53.4718 34.9275C53.2703 35.6763 53.0808 36.4063 52.6448 37.0504C52.0895 37.8706 52.118 38.6805 52.4052 39.6302C53.1365 42.0483 54.1376 44.4241 54.0042 47.0287C53.9599 47.8919 53.9599 48.7698 53.6187 49.5937C53.5684 49.7151 53.5064 49.8961 53.5589 49.9855C54.0217 50.7739 53.9635 51.5609 53.6478 52.3803C53.5676 52.5885 53.5605 52.8694 53.9368 53.1316C54.6373 51.9777 54.893 50.7044 54.9489 49.4265C55.0773 46.4903 55.4764 43.5853 56.3762 40.8092C56.9935 38.9047 57.7093 37.014 58.5291 35.1593C59.8057 32.2709 61.1826 29.4303 62.6405 26.6437C63.5562 24.8933 64.4372 22.9975 66.1232 21.7643C67.1416 21.0194 68.0992 20.1403 69.5353 20.2233C70.9527 20.3052 72.3534 21.2484 72.7112 22.6501C73.1054 24.1938 73.2861 25.7315 71.9695 27.0281C71.6923 27.3011 71.5385 27.7566 71.4511 28.155C71.1544 29.5084 70.4155 30.5365 69.4135 31.4781C67.1953 33.5626 65.3601 35.9671 63.7744 38.5696C62.855 40.0787 61.8258 41.5125 61.0161 43.0985C59.7985 45.4832 59.3664 48.1419 58.2946 50.5572C57.1812 53.0664 57.2488 55.7141 56.9988 58.3356C56.9642 58.698 57.0728 59.0237 57.1863 59.3552C57.2651 59.5853 57.4301 59.8535 57.3731 60.0519C56.8127 62.0054 57.9627 63.4834 58.6719 65.1078C59.147 66.1959 59.5634 67.283 60.442 68.128C60.7394 68.414 60.9441 68.8029 61.4203 68.8461C61.8709 68.6005 61.7205 68.1716 61.7166 67.8174C61.6767 64.1297 62.608 60.7154 64.5254 57.5637C65.4862 55.9844 66.5555 54.4383 67.3428 52.7934C68.7816 49.7875 69.8654 46.6149 67.9746 43.3298C67.4999 42.5051 66.9818 41.7212 65.8695 41.6498C65.4462 41.6226 65.0003 41.1655 65.2986 40.8851C66.2519 39.9891 66.0205 38.662 66.6712 37.6586C67.4171 36.5085 67.845 36.2553 69.113 36.7104C69.8899 36.9893 71.2495 36.5911 71.664 35.8809C72.0573 35.2069 72.5494 35.0555 73.2386 35.338C74.3219 35.7819 75.3003 36.2869 75.7382 37.5289C75.9506 38.1311 76.3808 38.7311 76.87 39.1461C78.0969 40.1868 78.5229 41.6942 79.2558 43.0128C79.5589 43.5582 79.4996 44.2994 79.6397 44.944C79.7193 45.31 79.7889 45.7519 80.2687 45.8018C80.6884 45.8454 80.8891 45.4888 81.0163 45.1715C81.7659 43.3017 82.8418 41.5479 83.044 39.4809C83.0953 38.9563 83.1737 38.4271 82.9954 37.9229C82.6626 36.9814 83.0475 36.1331 83.3007 35.2708C83.4221 34.8575 83.7949 34.6777 84.1893 34.6414C84.577 34.6057 84.6717 34.9652 84.8284 35.2347C85.6513 36.6497 85.1803 38.1399 84.8853 39.5197C84.3829 41.8695 83.5577 44.1377 82.225 46.1881C81.9213 46.6553 81.5148 47.1594 81.6957 47.8381C82.2465 47.947 82.5357 47.55 82.8376 47.2482C84.3522 45.7338 85.5092 43.9676 86.5308 42.0889C87.4608 40.3789 88.3222 38.6526 89.0273 36.8311C89.4442 35.7543 89.6547 34.6936 89.5993 33.5761C89.5693 32.971 89.6883 32.5396 90.2867 32.3383C90.945 32.1167 91.4481 32.3481 91.8126 32.9137C92.2363 33.5713 92.301 34.3309 92.1521 35.0421C91.3695 38.78 90.3793 42.394 87.435 45.1776C86.0514 46.4856 84.9771 48.1235 83.5434 49.4125C83.0505 49.8556 82.573 50.2475 81.8177 50.2649C81.1037 50.2813 80.7379 50.962 80.3162 51.4622C80.174 51.6309 80.1899 51.864 80.3115 52.0547C80.4896 52.3338 80.7183 52.1927 80.9585 52.1332C82.8034 51.6764 84.3027 50.5285 85.7989 49.4866C88.0795 47.8985 90.2726 46.153 92.0361 43.9562C92.3405 43.5772 92.5992 43.158 92.8495 42.7396C93.2363 42.0929 93.8162 42.1922 94.2973 42.4669C94.794 42.7506 94.7671 43.2262 94.4622 43.7367C93.3168 45.655 92.1623 47.5673 90.2342 48.8183C89.0429 49.5912 87.8341 50.3505 86.5723 50.997C85.6047 51.4927 84.7639 52.1156 83.692 52.922C85.0143 53.3065 86.1263 53.2266 87.1988 53.3759C88.0268 53.4911 88.8834 53.4387 89.6974 53.6062C90.6156 53.7951 91.5616 54.0777 91.6111 55.305C91.6206 55.5401 91.7788 55.6748 91.9559 55.7974C92.7258 56.3304 95.0759 56.2091 95.8297 55.5961C95.9651 55.4861 96.0899 55.3551 96.241 55.2738C96.8404 54.9515 97.4448 54.3567 98.1535 54.8465C98.9229 55.3782 98.2986 56.2711 98.5001 56.988C98.5897 57.3069 98.0286 57.4546 97.6813 57.4438C96.1971 57.3977 94.6965 57.5834 93.2375 57.1283C92.9812 57.0483 92.6192 56.9747 92.4214 57.0925C90.8833 58.0082 89.7031 56.9144 88.4109 56.4364C87.7001 56.1734 87.1176 55.5058 86.0468 55.7113C86.6153 56.4023 87.0325 57.0446 87.5771 57.5493C90.6907 60.4353 90.7976 64.2485 89.2812 67.8271C89.1142 68.2213 88.8662 68.5573 88.506 68.7943C88.127 69.0438 87.7253 69.3555 87.2553 69.1319C86.7055 68.8704 86.9472 68.3724 86.9883 67.9286C87.2271 65.348 86.7486 62.8457 85.9964 60.4063C85.3342 58.2588 83.3999 57.5508 81.5084 57.3C78.3732 56.8844 75.1778 56.6249 72.1336 57.9637C71.9769 58.0327 71.7839 58.113 71.6305 58.0806C69.9338 57.722 69.1376 58.8287 68.2661 59.9923C66.3355 62.5701 64.9575 65.3872 64.1839 68.5123C63.9645 69.3984 64.1801 70.1342 64.6629 70.8829C66.6327 73.9374 68.9764 76.6957 71.2906 79.4845C72.2833 80.6809 73.089 82.0322 74.1854 83.0338C74.6226 83.0215 74.7332 82.7691 74.825 82.5612C75.804 80.3448 78.2585 78.6975 79.9019 77.8784C80.8172 77.4573 81.3642 76.7952 81.9259 75.9244C82.6247 75.258 82.9604 75.3196 83.7766 75.6773C84.5995 76.0379 84.4177 76.4523 84.1955 77.0399C83.3187 79.3578 83.3477 81.7563 83.0436 84.1674C82.7174 86.7531 81.2732 89.047 78.5406 90.0371C77.9779 90.2409 77.5962 90.6505 77.9122 91.1901C78.7392 92.6018 79.0702 94.0779 79.5878 95.5924C80.2166 97.4325 80.9215 99.0541 81.0539 101.043C81.1544 102.554 81.1637 103.313 79.627 103.528C79.4304 103.556 79.5038 103.3 79.0642 103.454C79.3181 101.339 78.4168 99.8782 78.4358 97.8983C78.4545 95.9508 77.4031 94.2133 76.5799 92.5185C76.3309 92.0058 75.9171 91.9319 75.4645 92.3088C74.2051 93.3576 72.8243 93.3228 71.3275 92.8991C68.7985 92.1832 66.2062 91.426 63.5655 91.9238C63.0676 92.0177 62.8483 91.9979 62.4136 91.7142C61.8619 91.3541 61.8917 91.1972 62.3088 90.7708C64.3109 88.7246 66.3746 87.4653 69.3251 87.1022C70.2547 86.9879 71.4354 86.8133 72.362 86.683C73.3979 86.5374 73.3591 85.7627 72.7265 84.927C70.4361 81.9009 68.3414 78.7178 65.7378 75.941C65.2522 75.4231 64.5765 75.0131 63.9107 74.7531C63.0453 74.4152 62.2851 73.9485 61.5983 73.3586C61.1654 72.9867 60.7629 73.044 60.3548 73.2909C57.9894 74.722 56.2183 76.7966 54.4707 78.8745C53.815 79.6542 53.5726 80.7037 53.4753 81.7097C53.3177 83.3386 53.2932 84.98 53.1873 86.6145C53.156 87.0974 53.489 87.8731 52.8108 87.9638C52.1406 88.0534 51.4003 87.7371 51.0203 87.0164C50.858 86.7086 50.7216 86.3871 50.5242 86.0044ZM51.287 64.6334C51.1264 64.5665 50.9699 64.4863 50.8045 64.4349C48.3982 63.6864 45.9037 63.3706 43.4172 63.1381C41.6747 62.9753 39.932 62.7871 38.1368 62.8926C36.6168 62.9819 35.0521 63.3779 33.478 62.9604C32.6224 62.7334 31.6578 62.6545 30.7878 62.7937C27.8239 63.2679 24.5947 66.8526 24.332 69.8579C24.1931 71.4463 23.9835 73.0667 25.334 74.3388C25.6866 74.6708 26.0235 75.0351 26.2955 75.4338C26.7733 76.1341 27.2215 76.0111 27.7353 75.4928C28.4957 74.7256 29.3192 74.0587 30.255 73.4839C33.0166 71.7878 36.152 70.9789 39.0662 69.6483C40.8268 68.8445 42.7126 68.0981 44.6436 68.0518C46.6395 68.0038 48.5914 67.743 50.5612 67.5432C51.0718 67.4914 51.5586 67.7538 52.0504 67.9542C53.3446 68.4815 54.7271 68.6693 56.1179 68.6822C56.6022 68.6867 57.002 68.3741 56.5207 67.8763C55.5751 66.8983 54.8813 65.603 53.2317 65.5067C52.6173 65.4709 52.0288 64.9889 51.287 64.6334Z" fill="#EAE86F" stroke="black" mask="url(#path-1-inside-1_2_98)"/>
<path d="M63.9596 68.6263C63.9083 68.9703 63.8934 69.259 63.9049 69.5052C63.9265 69.9642 64.0391 70.2754 64.1715 70.5219C64.2352 70.6404 64.3036 70.7443 64.358 70.8295C64.4148 70.9183 64.4575 70.988 64.4879 71.059L64.4957 71.0785L64.5074 71.0961C64.9986 71.8577 65.5666 72.5941 66.0865 73.309C67.6967 75.5227 69.4876 77.6188 71.2272 79.7152C72.2295 80.9232 73.3001 82.2623 74.0543 83.1742L74.1549 83.2953L74.3082 83.2572C74.527 83.2024 74.6893 83.138 74.8082 83.0306C74.9279 82.9225 74.9793 82.7876 75.0182 82.6996C75.9671 80.5515 77.5997 79.1422 79.7291 78.1625C80.6879 77.7214 81.5129 77.0075 82.1002 76.097C82.3505 75.7092 82.6107 75.5637 82.8737 75.5297C83.155 75.4933 83.4854 75.5783 83.8824 75.7523C84.0606 75.8304 84.1693 75.9169 84.236 75.9994C84.3011 76.0801 84.3358 76.1682 84.3483 76.267C84.3751 76.4792 84.3026 76.7348 84.191 77.0297C83.7426 78.2152 83.5201 79.4251 83.3717 80.6332C83.2975 81.2369 83.2415 81.8433 83.1852 82.4457C83.1288 83.0494 83.0721 83.6502 82.9967 84.2484C82.6794 86.7637 81.3496 88.9703 78.7252 89.9213C78.5783 89.9745 78.4407 90.0333 78.3248 90.1029C78.2094 90.1723 78.1008 90.2617 78.028 90.3832C77.8672 90.6511 77.9445 90.9503 78.1168 91.2445C78.5139 91.9224 78.7621 92.657 78.9762 93.4222C79.1873 94.1768 79.3709 94.984 79.6324 95.7494C80.2654 97.6016 80.9334 99.3768 81.0631 101.325C81.1135 102.082 81.0561 102.508 80.8629 102.777C80.6765 103.036 80.3147 103.212 79.5573 103.318C79.4292 103.336 79.3107 103.377 79.1832 103.425C79.1421 103.441 79.0983 103.455 79.0524 103.473C79.1069 102.526 78.9574 101.634 78.7906 100.78C78.5985 99.7945 78.387 98.8695 78.3961 97.9115C78.4154 95.8973 77.5898 94.1362 76.7692 92.4467C76.6249 92.1497 76.4063 91.9267 76.109 91.8715C75.8158 91.8171 75.5253 91.9414 75.2692 92.1547C74.1014 93.1271 72.8209 93.1092 71.36 92.6957C68.8163 91.9757 66.2028 91.5292 63.5065 92.0375C63.0717 92.1195 62.6692 92.0427 62.2887 91.7943C62.0464 91.6361 61.9806 91.4991 61.9733 91.4027C61.9655 91.3007 62.0162 91.1539 62.2018 90.9642C64.1882 88.934 66.3705 87.323 69.2379 86.9701C69.6946 86.9139 70.1557 86.8838 70.6256 86.851C71.0929 86.8183 71.5687 86.7837 72.0416 86.7172C72.5729 86.6424 73.0207 86.4592 73.1998 86.0834C73.3846 85.6952 73.2185 85.2475 72.8903 84.8138C70.6133 81.8055 68.4999 78.5975 65.8844 75.808C65.3676 75.2568 64.6578 74.828 63.9664 74.558C63.1286 74.2308 62.3924 73.7787 61.7262 73.2064C61.7051 73.1883 61.6833 73.168 61.6549 73.141C61.6281 73.1155 61.595 73.0844 61.5592 73.0541C61.4861 72.9921 61.3914 72.9247 61.2662 72.8832C61.0787 72.8209 60.8637 72.8285 60.6022 72.9154C60.6207 72.9039 60.6393 72.8916 60.6578 72.8802C61.4605 72.3896 62.2378 72.1066 62.9205 72.1537L63.1871 72.1722V71.9037C63.1872 70.9913 63.5237 69.7932 63.9596 68.6263Z" fill="#1B421B" stroke="black" stroke-width="0.5"/>
<path d="M117.342 34H118.926V54.88H143.598V34H145.182V70H143.598V56.272H118.926V70H117.342V34ZM162.284 70.768C160.108 70.768 158.14 70.24 156.38 69.184C154.62 68.096 153.244 66.672 152.252 64.912C151.26 63.12 150.764 61.184 150.764 59.104C150.764 57.056 151.26 55.152 152.252 53.392C153.276 51.632 154.652 50.24 156.38 49.216C158.14 48.16 160.092 47.632 162.236 47.632C164.348 47.632 166.268 48.16 167.996 49.216C169.756 50.24 171.132 51.632 172.124 53.392C173.116 55.152 173.612 57.056 173.612 59.104C173.612 61.248 173.132 63.216 172.172 65.008C171.212 66.768 169.868 68.176 168.14 69.232C166.444 70.256 164.492 70.768 162.284 70.768ZM162.284 69.424C164.108 69.424 165.772 68.96 167.276 68.032C168.78 67.104 169.948 65.872 170.78 64.336C171.644 62.768 172.076 61.056 172.076 59.2C172.076 57.376 171.644 55.68 170.78 54.112C169.916 52.544 168.732 51.296 167.228 50.368C165.724 49.44 164.06 48.976 162.236 48.976C160.412 48.976 158.732 49.456 157.196 50.416C155.692 51.344 154.492 52.592 153.596 54.16C152.732 55.728 152.3 57.424 152.3 59.248C152.3 61.072 152.732 62.768 153.596 64.336C154.492 65.872 155.692 67.104 157.196 68.032C158.732 68.96 160.428 69.424 162.284 69.424ZM177.933 48.4H179.469V53.2C180.173 51.6 181.373 50.32 183.069 49.36C184.765 48.368 186.637 47.872 188.685 47.872C191.341 47.872 193.437 48.72 194.973 50.416C196.541 52.08 197.325 54.416 197.325 57.424V70H195.789V57.424C195.789 54.832 195.149 52.816 193.869 51.376C192.621 49.936 190.861 49.216 188.589 49.216C186.925 49.216 185.389 49.6 183.981 50.368C182.605 51.104 181.501 52.128 180.669 53.44C179.869 54.752 179.469 56.24 179.469 57.904V70H177.933V48.4ZM213.899 69.232C215.563 69.232 217.147 68.8 218.651 67.936C220.155 67.072 221.403 65.888 222.395 64.384V66.832C221.211 68.144 219.915 69.104 218.507 69.712C217.099 70.288 215.499 70.576 213.707 70.576C211.723 70.576 209.851 70.048 208.091 68.992C206.363 67.936 204.971 66.528 203.915 64.768C202.891 63.008 202.379 61.136 202.379 59.152C202.379 57.008 202.891 55.088 203.915 53.392C204.939 51.664 206.331 50.32 208.091 49.36C209.883 48.4 211.867 47.92 214.043 47.92C217.371 47.92 220.203 49.232 222.539 51.856L207.467 66.736C208.523 67.6 209.547 68.24 210.539 68.656C211.531 69.04 212.651 69.232 213.899 69.232ZM203.915 59.008C203.915 61.664 204.795 63.936 206.555 65.824L220.619 51.856C219.563 50.928 218.539 50.272 217.547 49.888C216.555 49.472 215.371 49.264 213.995 49.264C212.043 49.264 210.299 49.696 208.763 50.56C207.259 51.392 206.075 52.544 205.211 54.016C204.347 55.488 203.915 57.152 203.915 59.008ZM236.268 79.552C232.684 79.552 229.852 78.272 227.772 75.712V73.264C228.828 74.928 230.028 76.16 231.372 76.96C232.716 77.792 234.284 78.208 236.076 78.208C237.9 78.208 239.452 77.824 240.732 77.056C242.044 76.288 243.036 75.232 243.708 73.888C244.38 72.576 244.716 71.104 244.716 69.472V65.824C243.948 67.328 242.78 68.496 241.212 69.328C239.676 70.128 237.996 70.528 236.172 70.528C234.348 70.528 232.732 70.128 231.324 69.328C229.916 68.528 228.812 67.408 228.012 65.968C227.244 64.528 226.86 62.864 226.86 60.976V48.4H228.396V60.976C228.396 62.704 228.748 64.192 229.452 65.44C230.188 66.656 231.148 67.584 232.332 68.224C233.516 68.864 234.812 69.184 236.22 69.184C237.756 69.184 239.18 68.816 240.492 68.08C241.804 67.312 242.828 66.304 243.564 65.056C244.332 63.776 244.716 62.416 244.716 60.976V48.4H246.252V69.328C246.252 71.248 245.852 72.976 245.052 74.512C244.284 76.08 243.148 77.312 241.644 78.208C240.14 79.104 238.348 79.552 236.268 79.552ZM257.04 70.528C255.504 70.528 254.144 70.272 252.96 69.76C251.776 69.216 250.928 68.528 250.416 67.696V65.152C251.024 66.528 251.856 67.552 252.912 68.224C253.968 68.864 255.312 69.184 256.944 69.184C258.512 69.184 259.776 68.704 260.736 67.744C261.696 66.752 262.176 65.488 262.176 63.952C262.176 62.64 261.904 61.632 261.36 60.928C260.816 60.192 259.936 59.456 258.72 58.72L256.896 57.664C255.584 56.864 254.592 56.24 253.92 55.792C253.28 55.312 252.768 54.784 252.384 54.208C252 53.6 251.808 52.896 251.808 52.096C251.808 50.816 252.256 49.792 253.152 49.024C254.048 48.256 255.216 47.872 256.656 47.872C258.416 47.872 259.888 48.272 261.072 49.072V51.184C260.08 49.872 258.656 49.216 256.8 49.216C255.776 49.216 254.944 49.472 254.304 49.984C253.664 50.496 253.344 51.152 253.344 51.952C253.344 52.656 253.536 53.28 253.92 53.824C254.304 54.336 254.832 54.816 255.504 55.264C256.208 55.712 257.36 56.384 258.96 57.28C260.592 58.208 261.792 59.168 262.56 60.16C263.328 61.12 263.712 62.384 263.712 63.952C263.712 65.936 263.056 67.536 261.744 68.752C260.464 69.936 258.896 70.528 257.04 70.528ZM278 70.528C274.96 70.528 272.608 69.696 270.944 68.032C269.312 66.368 268.496 64.016 268.496 60.976V48.4H270.032V60.976C270.032 63.6 270.72 65.632 272.096 67.072C273.504 68.48 275.472 69.184 278 69.184C279.536 69.184 280.944 68.848 282.224 68.176C283.504 67.472 284.512 66.496 285.248 65.248C285.984 64 286.352 62.576 286.352 60.976V48.4H287.888V70H286.352V65.968C285.616 67.312 284.512 68.416 283.04 69.28C281.568 70.112 279.888 70.528 278 70.528ZM304.125 70.624C302.045 70.624 300.125 70.128 298.365 69.136C296.637 68.144 295.261 66.784 294.237 65.056C293.213 63.328 292.701 61.376 292.701 59.2C292.701 57.184 293.213 55.328 294.237 53.632C295.261 51.904 296.653 50.528 298.413 49.504C300.205 48.48 302.173 47.968 304.317 47.968C306.109 47.968 307.645 48.256 308.925 48.832C310.205 49.408 311.453 50.304 312.669 51.52V54.112C311.613 52.544 310.429 51.36 309.117 50.56C307.837 49.728 306.237 49.312 304.317 49.312C302.557 49.312 300.893 49.776 299.325 50.704C297.789 51.6 296.557 52.816 295.629 54.352C294.701 55.888 294.237 57.536 294.237 59.296C294.237 61.216 294.685 62.944 295.581 64.48C296.477 65.984 297.677 67.168 299.181 68.032C300.717 68.864 302.365 69.28 304.125 69.28C307.709 69.28 310.557 67.664 312.669 64.432V67.024C311.517 68.24 310.237 69.152 308.829 69.76C307.453 70.336 305.885 70.624 304.125 70.624ZM316.918 34.096H318.454V55.888L326.998 48.4H328.966L319.078 57.04L331.462 70H329.398L318.454 58.48V70H316.918V34.096ZM343.173 70.432C341.669 70.432 340.293 70.096 339.045 69.424C337.797 68.72 336.805 67.744 336.069 66.496C335.333 65.248 334.965 63.856 334.965 62.32V34H336.501V62.32C336.501 63.6 336.789 64.752 337.365 65.776C337.973 66.8 338.789 67.616 339.813 68.224C340.837 68.8 341.957 69.088 343.173 69.088V70.432ZM357.195 69.232C358.859 69.232 360.443 68.8 361.947 67.936C363.451 67.072 364.699 65.888 365.691 64.384V66.832C364.507 68.144 363.211 69.104 361.803 69.712C360.395 70.288 358.795 70.576 357.003 70.576C355.019 70.576 353.147 70.048 351.387 68.992C349.659 67.936 348.267 66.528 347.211 64.768C346.187 63.008 345.675 61.136 345.675 59.152C345.675 57.008 346.187 55.088 347.211 53.392C348.235 51.664 349.627 50.32 351.387 49.36C353.179 48.4 355.163 47.92 357.339 47.92C360.667 47.92 363.499 49.232 365.835 51.856L350.763 66.736C351.819 67.6 352.843 68.24 353.835 68.656C354.827 69.04 355.947 69.232 357.195 69.232ZM347.211 59.008C347.211 61.664 348.091 63.936 349.851 65.824L363.915 51.856C362.859 50.928 361.835 50.272 360.843 49.888C359.851 49.472 358.667 49.264 357.291 49.264C355.339 49.264 353.595 49.696 352.059 50.56C350.555 51.392 349.371 52.544 348.507 54.016C347.643 55.488 347.211 57.152 347.211 59.008ZM375.869 70.528C374.333 70.528 372.973 70.272 371.789 69.76C370.605 69.216 369.757 68.528 369.245 67.696V65.152C369.853 66.528 370.685 67.552 371.741 68.224C372.797 68.864 374.141 69.184 375.773 69.184C377.341 69.184 378.605 68.704 379.565 67.744C380.525 66.752 381.005 65.488 381.005 63.952C381.005 62.64 380.733 61.632 380.189 60.928C379.645 60.192 378.765 59.456 377.549 58.72L375.725 57.664C374.413 56.864 373.421 56.24 372.749 55.792C372.109 55.312 371.597 54.784 371.213 54.208C370.829 53.6 370.637 52.896 370.637 52.096C370.637 50.816 371.085 49.792 371.981 49.024C372.877 48.256 374.045 47.872 375.485 47.872C377.245 47.872 378.717 48.272 379.901 49.072V51.184C378.909 49.872 377.485 49.216 375.629 49.216C374.605 49.216 373.773 49.472 373.133 49.984C372.493 50.496 372.173 51.152 372.173 51.952C372.173 52.656 372.365 53.28 372.749 53.824C373.133 54.336 373.661 54.816 374.333 55.264C375.037 55.712 376.189 56.384 377.789 57.28C379.421 58.208 380.621 59.168 381.389 60.16C382.157 61.12 382.541 62.384 382.541 63.952C382.541 65.936 381.885 67.536 380.573 68.752C379.293 69.936 377.725 70.528 375.869 70.528Z" fill="black"/>
</svg>
