<svg width="355" height="97" viewBox="0 0 355 97" fill="none" xmlns="http://www.w3.org/2000/svg">
<path d="M48.2822 49.4458C46.7986 49.8986 45.3169 50.3598 43.8369 50.8286L43.3604 50.979L43.5107 51.4556C44.011 53.0403 44.512 54.6256 45.0127 56.2104L45.1631 56.688L45.6396 56.5366C47.097 56.075 48.5566 55.6212 50.0176 55.1753C53.7234 67.4074 57.4299 79.6394 61.1357 91.8716C57.3495 93.0276 53.4973 94.2686 49.7461 95.5386C48.9498 93.1887 48.1537 90.8387 47.3574 88.4888C47.9636 88.2834 48.5692 88.08 49.1738 87.8784L49.6475 87.7202L49.4902 87.2466C42.5378 66.3211 35.5852 45.3957 28.6328 24.4702L28.4756 23.9956L28 24.1538C27.2699 24.3972 26.5387 24.643 25.8066 24.8911C25.0105 22.5418 24.2141 20.1926 23.418 17.8433C28.005 16.2892 32.7193 14.7718 37.3496 13.3589C40.9939 25.3878 44.6379 37.4168 48.2822 49.4458ZM316.81 13.3579C321.441 14.7713 326.157 16.2887 330.746 17.8433C329.95 20.1929 329.154 22.5425 328.357 24.8921C328.096 24.8033 327.834 24.7136 327.572 24.6255L327.099 24.4653L326.939 24.9399C319.921 45.8436 312.903 66.7472 305.885 87.6509L305.726 88.1245L306.199 88.2837C306.402 88.3519 306.604 88.4211 306.807 88.4897C306.01 90.8394 305.214 93.189 304.418 95.5386C300.665 94.2682 296.812 93.027 293.024 91.8706C296.73 79.6385 300.436 67.4064 304.142 55.1743C305.333 55.5381 306.524 55.9065 307.714 56.2808L308.191 56.4312L308.342 55.9536C308.844 54.3522 309.331 52.7964 309.833 51.1948L309.982 50.7183L309.506 50.5688C308.298 50.1887 307.088 49.8143 305.877 49.4448C309.521 37.4158 313.165 25.3869 316.81 13.3579ZM46.0898 87.8647C42.225 89.1846 38.343 90.5752 34.5342 92.0054C33.6057 89.5341 32.6775 87.0626 31.749 84.5913C32.0981 84.4602 32.4466 84.3294 32.7949 84.1997L33.2637 84.0249L33.0898 83.5571C27.4855 68.4611 21.8807 53.3651 16.2764 38.269L16.1025 37.7993L15.6328 37.9741C15.2247 38.1261 14.8162 38.2794 14.4072 38.4331C13.4788 35.9618 12.5505 33.4904 11.6221 31.019C16.0899 29.3407 20.646 27.7094 25.1807 26.1616C32.1506 46.7293 39.1201 67.2971 46.0898 87.8647ZM328.983 26.1597C333.508 27.7038 338.077 29.3418 342.542 31.019C341.614 33.4904 340.685 35.9618 339.757 38.4331C339.385 38.2935 339.014 38.1543 338.644 38.0161L338.175 37.8413L338 38.3101C332.392 53.4044 326.784 68.4995 321.176 83.5942L321.002 84.062L321.47 84.2368C321.785 84.3543 322.1 84.4727 322.416 84.5913C321.488 87.0626 320.559 89.5341 319.631 92.0054C315.824 90.5763 311.931 89.1806 308.074 87.8638C315.044 67.2958 322.013 46.7276 328.983 26.1597ZM30.4609 84.0083C26.5422 85.4911 22.5926 87.0537 18.7314 88.6499C12.7052 74.0783 6.67922 59.5066 0.65332 44.9351C4.9877 43.1423 9.42239 41.3856 13.8223 39.7212C19.3682 54.4837 24.9148 69.246 30.4609 84.0083ZM340.342 39.7212C344.741 41.385 349.176 43.1413 353.511 44.9341C347.484 59.506 341.458 74.078 335.432 88.6499C331.571 87.0539 327.621 85.4899 323.703 84.0073C329.249 69.2453 334.796 54.4834 340.342 39.7212ZM328.037 25.8384C321.067 46.4064 314.098 66.9745 307.128 87.5425C307.082 87.5271 307.037 87.512 306.991 87.4966C313.904 66.9087 320.815 46.3208 327.727 25.7329C327.83 25.7679 327.934 25.8033 328.037 25.8384ZM48.3838 87.0884C47.9351 87.2386 47.4857 87.3892 47.0361 87.5415C40.0664 66.9738 33.0969 46.4061 26.127 25.8384C26.6988 25.6446 27.2701 25.4522 27.8408 25.2612C34.6881 45.8704 41.5365 66.4792 48.3838 87.0884ZM31.9785 83.437C31.7845 83.5095 31.5907 83.5828 31.3965 83.6558C25.8505 68.8939 20.3046 54.1317 14.7588 39.3696C15.0103 39.2751 15.2615 39.1803 15.5127 39.0864C21.0012 53.8703 26.4901 68.6531 31.9785 83.437ZM339.405 39.3696C333.859 54.1317 328.314 68.8939 322.768 83.6558C322.607 83.5955 322.447 83.5351 322.286 83.4751C327.778 68.6927 333.27 53.9104 338.763 39.1284C338.977 39.2085 339.191 39.2891 339.405 39.3696ZM49.7275 54.2183C48.422 54.6167 47.1181 55.0221 45.8154 55.4331C45.4152 54.166 45.0153 52.8986 44.6152 51.6313C45.9328 51.2156 47.2518 50.8059 48.5723 50.4028C48.9576 51.6746 49.3422 52.9465 49.7275 54.2183ZM305.588 50.4009C306.636 50.7207 307.682 51.0457 308.729 51.3735C308.334 52.6335 307.931 53.9172 307.536 55.1772C306.502 54.8532 305.467 54.5324 304.432 54.2163C304.817 52.9445 305.203 51.6727 305.588 50.4009ZM49.5293 50.1128C132.688 24.9383 221.472 24.9375 304.631 50.1108C304.246 51.3827 303.86 52.6544 303.475 53.9263C221.069 28.9825 133.09 28.9822 50.6846 53.9272C50.2994 52.6558 49.9145 51.3842 49.5293 50.1128Z" fill="#0F2535" stroke="#F4F4F4"/>
<mask id="path-2-outside-1_2_79" maskUnits="userSpaceOnUse" x="70.783" y="-0.828613" width="221" height="81" fill="black">
<rect fill="white" x="70.783" y="-0.828613" width="221" height="81"/>
<path d="M73.783 18.0223C77.2059 16.9276 80.6737 15.9001 84.1772 14.9387C86.8916 25.6634 89.6305 36.4234 92.3904 47.2198C92.4408 47.2098 92.4955 47.194 92.5459 47.184V12.7756C95.0741 12.1638 97.6176 11.5784 100.176 11.0282V68.5096C97.2255 69.1466 94.2954 69.8251 91.385 70.5444C87.9873 57.3944 84.6246 44.3066 81.292 31.2748C81.2422 31.2899 81.1918 31.3056 81.1414 31.3157V73.2778C78.6685 73.987 76.2159 74.7322 73.783 75.5081V18.0223Z"/>
<path d="M106.63 9.6977C114.546 8.16092 122.593 6.89704 130.736 5.88971V14.1012C125.579 14.7388 120.462 15.4782 115.391 16.3265V31.5163C119.421 30.8429 123.483 30.2367 127.569 29.6972V37.9086C123.483 38.4481 119.421 39.0549 115.391 39.7277V57.3843C120.462 56.5361 125.584 55.7966 130.736 55.159V63.3705C122.593 64.3778 114.546 65.6367 106.63 67.1785V9.6977Z"/>
<path d="M144 32.5695C140.682 23.5048 137.376 14.4765 134.078 5.49416C137.235 5.13449 140.406 4.81066 143.588 4.52267C145.618 10.5245 147.649 16.5471 149.685 22.5798C149.74 22.5798 149.795 22.5697 149.851 22.5697C151.941 16.229 154.037 9.90328 156.138 3.59268C159.008 3.4229 161.889 3.28457 164.768 3.17139C161.416 12.6624 158.069 22.1893 154.731 31.7627C158.235 41.3412 161.748 50.9662 165.266 60.6371C162.055 60.7553 158.842 60.9144 155.641 61.1043C153.435 54.5579 151.228 48.0316 149.026 41.521C148.971 41.521 148.916 41.5317 148.861 41.5317C146.603 48.3812 144.352 55.2514 142.105 62.1424C139.255 62.4096 136.416 62.7077 133.586 63.0366C137.039 52.8362 140.512 42.6824 143.995 32.5745L144 32.5695Z"/>
<path d="M201.651 3.74678C206.159 3.96308 210.658 4.25044 215.136 4.61514C219.805 4.99556 223.198 6.42419 225.324 8.81362C227.451 11.203 228.511 14.6564 228.511 19.1422V22.6729C228.511 28.644 226.556 32.179 222.62 33.3712V33.536C224.806 34.4094 226.349 35.9254 227.25 38.0476C228.149 40.1748 228.596 42.9346 228.596 46.3307V56.4336C228.596 58.0779 228.651 59.4091 228.757 60.4365C228.868 61.4646 229.139 62.4921 229.571 63.5302C226.526 63.1705 223.47 62.8467 220.399 62.5587C220.072 61.5979 219.851 60.6987 219.74 59.8712C219.63 59.0387 219.574 57.5591 219.574 55.4212V44.9128C219.574 42.2869 219.147 40.4113 218.298 39.2964C217.448 38.1809 215.98 37.5339 213.89 37.3691C212.844 37.2868 211.799 37.21 210.753 37.1377V61.7727C207.722 61.5621 204.687 61.3822 201.64 61.2382V3.75747L201.651 3.74678ZM214.066 29.1627C215.88 29.3067 217.237 28.9571 218.147 28.1045C219.052 27.2562 219.504 25.7351 219.504 23.5463V19.1114C219.504 17.0307 219.132 15.4939 218.393 14.4973C217.654 13.5 216.483 12.9347 214.895 12.8065C213.523 12.6983 212.146 12.5958 210.769 12.4984V28.9213C211.869 28.9986 212.97 29.0803 214.07 29.1677L214.066 29.1627Z"/>
<path d="M234.783 6.69647C242.901 7.76542 250.923 9.09658 258.799 10.705V18.9165C253.807 17.8991 248.762 16.9892 243.67 16.1925V31.383C247.716 32.02 251.737 32.7236 255.717 33.4945V41.7059C251.732 40.93 247.716 40.2314 243.67 39.5944V57.2504C248.762 58.0521 253.807 58.957 258.799 59.9743V68.1858C250.917 66.5773 242.901 65.2462 234.783 64.1779V6.69647Z"/>
<path d="M263.745 11.7583C267.967 12.6933 272.144 13.7057 276.27 14.8105C280.447 15.926 283.534 18.0532 285.584 21.0903C287.63 24.1267 288.645 27.9913 288.645 32.6419V38.3099C288.645 42.9655 287.63 46.1667 285.584 47.9449C283.534 49.7275 280.447 50.0105 276.27 48.895C274.944 48.541 273.617 48.1964 272.28 47.8625V71.2638C269.455 70.5545 266.61 69.8817 263.74 69.2491V11.7684L263.745 11.7583ZM276.27 40.6735C277.648 41.0432 278.673 40.915 279.357 40.283C280.041 39.6511 280.382 38.3558 280.382 36.3826V29.569C280.382 27.6008 280.041 26.1056 279.357 25.0932C278.673 24.0808 277.648 23.3873 276.27 23.0169C274.944 22.6623 273.617 22.3183 272.28 21.9844V39.6404C273.617 39.9743 274.944 40.3239 276.27 40.6735Z"/>
<path d="M178.72 11.6835H168.969V3.37259H197.796V11.6835H188.046V61.549H178.72V11.6835Z"/>
</mask>
<path d="M73.783 18.0223C77.2059 16.9276 80.6737 15.9001 84.1772 14.9387C86.8916 25.6634 89.6305 36.4234 92.3904 47.2198C92.4408 47.2098 92.4955 47.194 92.5459 47.184V12.7756C95.0741 12.1638 97.6176 11.5784 100.176 11.0282V68.5096C97.2255 69.1466 94.2954 69.8251 91.385 70.5444C87.9873 57.3944 84.6246 44.3066 81.292 31.2748C81.2422 31.2899 81.1918 31.3056 81.1414 31.3157V73.2778C78.6685 73.987 76.2159 74.7322 73.783 75.5081V18.0223Z" fill="#1E4A6B"/>
<path d="M106.63 9.6977C114.546 8.16092 122.593 6.89704 130.736 5.88971V14.1012C125.579 14.7388 120.462 15.4782 115.391 16.3265V31.5163C119.421 30.8429 123.483 30.2367 127.569 29.6972V37.9086C123.483 38.4481 119.421 39.0549 115.391 39.7277V57.3843C120.462 56.5361 125.584 55.7966 130.736 55.159V63.3705C122.593 64.3778 114.546 65.6367 106.63 67.1785V9.6977Z" fill="#1E4A6B"/>
<path d="M144 32.5695C140.682 23.5048 137.376 14.4765 134.078 5.49416C137.235 5.13449 140.406 4.81066 143.588 4.52267C145.618 10.5245 147.649 16.5471 149.685 22.5798C149.74 22.5798 149.795 22.5697 149.851 22.5697C151.941 16.229 154.037 9.90328 156.138 3.59268C159.008 3.4229 161.889 3.28457 164.768 3.17139C161.416 12.6624 158.069 22.1893 154.731 31.7627C158.235 41.3412 161.748 50.9662 165.266 60.6371C162.055 60.7553 158.842 60.9144 155.641 61.1043C153.435 54.5579 151.228 48.0316 149.026 41.521C148.971 41.521 148.916 41.5317 148.861 41.5317C146.603 48.3812 144.352 55.2514 142.105 62.1424C139.255 62.4096 136.416 62.7077 133.586 63.0366C137.039 52.8362 140.512 42.6824 143.995 32.5745L144 32.5695Z" fill="#1E4A6B"/>
<path d="M201.651 3.74678C206.159 3.96308 210.658 4.25044 215.136 4.61514C219.805 4.99556 223.198 6.42419 225.324 8.81362C227.451 11.203 228.511 14.6564 228.511 19.1422V22.6729C228.511 28.644 226.556 32.179 222.62 33.3712V33.536C224.806 34.4094 226.349 35.9254 227.25 38.0476C228.149 40.1748 228.596 42.9346 228.596 46.3307V56.4336C228.596 58.0779 228.651 59.4091 228.757 60.4365C228.868 61.4646 229.139 62.4921 229.571 63.5302C226.526 63.1705 223.47 62.8467 220.399 62.5587C220.072 61.5979 219.851 60.6987 219.74 59.8712C219.63 59.0387 219.574 57.5591 219.574 55.4212V44.9128C219.574 42.2869 219.147 40.4113 218.298 39.2964C217.448 38.1809 215.98 37.5339 213.89 37.3691C212.844 37.2868 211.799 37.21 210.753 37.1377V61.7727C207.722 61.5621 204.687 61.3822 201.64 61.2382V3.75747L201.651 3.74678ZM214.066 29.1627C215.88 29.3067 217.237 28.9571 218.147 28.1045C219.052 27.2562 219.504 25.7351 219.504 23.5463V19.1114C219.504 17.0307 219.132 15.4939 218.393 14.4973C217.654 13.5 216.483 12.9347 214.895 12.8065C213.523 12.6983 212.146 12.5958 210.769 12.4984V28.9213C211.869 28.9986 212.97 29.0803 214.07 29.1677L214.066 29.1627Z" fill="#D4A03A"/>
<path d="M234.783 6.69647C242.901 7.76542 250.923 9.09658 258.799 10.705V18.9165C253.807 17.8991 248.762 16.9892 243.67 16.1925V31.383C247.716 32.02 251.737 32.7236 255.717 33.4945V41.7059C251.732 40.93 247.716 40.2314 243.67 39.5944V57.2504C248.762 58.0521 253.807 58.957 258.799 59.9743V68.1858C250.917 66.5773 242.901 65.2462 234.783 64.1779V6.69647Z" fill="#D4A03A"/>
<path d="M263.745 11.7583C267.967 12.6933 272.144 13.7057 276.27 14.8105C280.447 15.926 283.534 18.0532 285.584 21.0903C287.63 24.1267 288.645 27.9913 288.645 32.6419V38.3099C288.645 42.9655 287.63 46.1667 285.584 47.9449C283.534 49.7275 280.447 50.0105 276.27 48.895C274.944 48.541 273.617 48.1964 272.28 47.8625V71.2638C269.455 70.5545 266.61 69.8817 263.74 69.2491V11.7684L263.745 11.7583ZM276.27 40.6735C277.648 41.0432 278.673 40.915 279.357 40.283C280.041 39.6511 280.382 38.3558 280.382 36.3826V29.569C280.382 27.6008 280.041 26.1056 279.357 25.0932C278.673 24.0808 277.648 23.3873 276.27 23.0169C274.944 22.6623 273.617 22.3183 272.28 21.9844V39.6404C273.617 39.9743 274.944 40.3239 276.27 40.6735Z" fill="#D4A03A"/>
<path d="M178.72 11.6835H168.969V3.37259H197.796V11.6835H188.046V61.549H178.72V11.6835Z" fill="#1E4A6B"/>
<path d="M73.783 18.0223C77.2059 16.9276 80.6737 15.9001 84.1772 14.9387C86.8916 25.6634 89.6305 36.4234 92.3904 47.2198C92.4408 47.2098 92.4955 47.194 92.5459 47.184V12.7756C95.0741 12.1638 97.6176 11.5784 100.176 11.0282V68.5096C97.2255 69.1466 94.2954 69.8251 91.385 70.5444C87.9873 57.3944 84.6246 44.3066 81.292 31.2748C81.2422 31.2899 81.1918 31.3056 81.1414 31.3157V73.2778C78.6685 73.987 76.2159 74.7322 73.783 75.5081V18.0223Z" stroke="#F4F4F4" stroke-width="6" mask="url(#path-2-outside-1_2_79)"/>
<path d="M106.63 9.6977C114.546 8.16092 122.593 6.89704 130.736 5.88971V14.1012C125.579 14.7388 120.462 15.4782 115.391 16.3265V31.5163C119.421 30.8429 123.483 30.2367 127.569 29.6972V37.9086C123.483 38.4481 119.421 39.0549 115.391 39.7277V57.3843C120.462 56.5361 125.584 55.7966 130.736 55.159V63.3705C122.593 64.3778 114.546 65.6367 106.63 67.1785V9.6977Z" stroke="#F4F4F4" stroke-width="6" mask="url(#path-2-outside-1_2_79)"/>
<path d="M144 32.5695C140.682 23.5048 137.376 14.4765 134.078 5.49416C137.235 5.13449 140.406 4.81066 143.588 4.52267C145.618 10.5245 147.649 16.5471 149.685 22.5798C149.74 22.5798 149.795 22.5697 149.851 22.5697C151.941 16.229 154.037 9.90328 156.138 3.59268C159.008 3.4229 161.889 3.28457 164.768 3.17139C161.416 12.6624 158.069 22.1893 154.731 31.7627C158.235 41.3412 161.748 50.9662 165.266 60.6371C162.055 60.7553 158.842 60.9144 155.641 61.1043C153.435 54.5579 151.228 48.0316 149.026 41.521C148.971 41.521 148.916 41.5317 148.861 41.5317C146.603 48.3812 144.352 55.2514 142.105 62.1424C139.255 62.4096 136.416 62.7077 133.586 63.0366C137.039 52.8362 140.512 42.6824 143.995 32.5745L144 32.5695Z" stroke="#F4F4F4" stroke-width="6" mask="url(#path-2-outside-1_2_79)"/>
<path d="M201.651 3.74678C206.159 3.96308 210.658 4.25044 215.136 4.61514C219.805 4.99556 223.198 6.42419 225.324 8.81362C227.451 11.203 228.511 14.6564 228.511 19.1422V22.6729C228.511 28.644 226.556 32.179 222.62 33.3712V33.536C224.806 34.4094 226.349 35.9254 227.25 38.0476C228.149 40.1748 228.596 42.9346 228.596 46.3307V56.4336C228.596 58.0779 228.651 59.4091 228.757 60.4365C228.868 61.4646 229.139 62.4921 229.571 63.5302C226.526 63.1705 223.47 62.8467 220.399 62.5587C220.072 61.5979 219.851 60.6987 219.74 59.8712C219.63 59.0387 219.574 57.5591 219.574 55.4212V44.9128C219.574 42.2869 219.147 40.4113 218.298 39.2964C217.448 38.1809 215.98 37.5339 213.89 37.3691C212.844 37.2868 211.799 37.21 210.753 37.1377V61.7727C207.722 61.5621 204.687 61.3822 201.64 61.2382V3.75747L201.651 3.74678ZM214.066 29.1627C215.88 29.3067 217.237 28.9571 218.147 28.1045C219.052 27.2562 219.504 25.7351 219.504 23.5463V19.1114C219.504 17.0307 219.132 15.4939 218.393 14.4973C217.654 13.5 216.483 12.9347 214.895 12.8065C213.523 12.6983 212.146 12.5958 210.769 12.4984V28.9213C211.869 28.9986 212.97 29.0803 214.07 29.1677L214.066 29.1627Z" stroke="#F4F4F4" stroke-width="6" mask="url(#path-2-outside-1_2_79)"/>
<path d="M234.783 6.69647C242.901 7.76542 250.923 9.09658 258.799 10.705V18.9165C253.807 17.8991 248.762 16.9892 243.67 16.1925V31.383C247.716 32.02 251.737 32.7236 255.717 33.4945V41.7059C251.732 40.93 247.716 40.2314 243.67 39.5944V57.2504C248.762 58.0521 253.807 58.957 258.799 59.9743V68.1858C250.917 66.5773 242.901 65.2462 234.783 64.1779V6.69647Z" stroke="#F4F4F4" stroke-width="6" mask="url(#path-2-outside-1_2_79)"/>
<path d="M263.745 11.7583C267.967 12.6933 272.144 13.7057 276.27 14.8105C280.447 15.926 283.534 18.0532 285.584 21.0903C287.63 24.1267 288.645 27.9913 288.645 32.6419V38.3099C288.645 42.9655 287.63 46.1667 285.584 47.9449C283.534 49.7275 280.447 50.0105 276.27 48.895C274.944 48.541 273.617 48.1964 272.28 47.8625V71.2638C269.455 70.5545 266.61 69.8817 263.74 69.2491V11.7684L263.745 11.7583ZM276.27 40.6735C277.648 41.0432 278.673 40.915 279.357 40.283C280.041 39.6511 280.382 38.3558 280.382 36.3826V29.569C280.382 27.6008 280.041 26.1056 279.357 25.0932C278.673 24.0808 277.648 23.3873 276.27 23.0169C274.944 22.6623 273.617 22.3183 272.28 21.9844V39.6404C273.617 39.9743 274.944 40.3239 276.27 40.6735Z" stroke="#F4F4F4" stroke-width="6" mask="url(#path-2-outside-1_2_79)"/>
<path d="M178.72 11.6835H168.969V3.37259H197.796V11.6835H188.046V61.549H178.72V11.6835Z" stroke="#F4F4F4" stroke-width="6" mask="url(#path-2-outside-1_2_79)"/>
</svg>
